<?xml version="1.0" encoding="UTF-8"?>
<svg id="_레이어_2" data-name="레이어 2" xmlns="http://www.w3.org/2000/svg" viewBox="0 0 1714.94 338.76">
  <defs>
    <style>
      .cls-1 {
        fill: #fff;
      }
    </style>
  </defs>
  <g id="_레이어_1-2" data-name="레이어 1">
    <g>
      <path class="cls-1" d="M0,.06h207.09c52.33,0,92.88,8.05,121.66,24.13,28.76,16.09,43.15,39.6,43.15,70.52s-17.31,51.35-51.91,65.88c22.06,7.12,39.03,17.17,50.93,30.16,11.89,12.99,17.84,28.92,17.84,47.79,0,33.4-15.25,58.46-45.74,75.16-30.49,16.7-71.92,25.05-124.25,25.05H0V.06ZM146.1,58.05v77.02h60.99c28.11,0,47.79-3.71,59.04-11.14,11.24-7.42,16.87-17.17,16.87-29.23,0-12.68-5.84-21.96-17.52-27.84-11.68-5.87-31.14-8.82-58.39-8.82h-60.99ZM146.1,193.99v86.76h72.67c26.81,0,47.04-3.78,60.67-11.37,13.63-7.58,20.44-18.33,20.44-32.25,0-6.8-1.41-12.91-4.22-18.33-2.82-5.41-7.46-9.98-13.95-13.69-6.49-3.71-15.15-6.5-25.95-8.35-10.82-1.86-24.44-2.78-40.88-2.78h-68.78Z"/>
      <path class="cls-1" d="M421.74,45.51c0-10.2,3.08-18.46,9.26-24.77,6.17-6.31,14.5-9.47,24.97-9.47s19.13,3.16,25.18,9.47c6.04,6.31,9.06,14.57,9.06,24.77s-3.02,18.4-9.06,24.57c-6.04,6.18-14.44,9.27-25.18,9.27s-19.47-3.08-25.38-9.27c-5.91-6.17-8.86-14.36-8.86-24.57ZM419.24,103.11h0c91.54,0,165.75,74.21,165.75,165.75v69.9s-165.75,0-165.75,0V103.11Z"/>
      <path class="cls-1" d="M620.34,103.11h53.98v29c7.79-10.2,17.66-18.39,29.61-24.57,11.95-6.17,25.58-9.26,40.89-9.26,29.27,0,52.17,8.86,68.68,26.59,16.52,17.72,24.77,42.44,24.77,74.12v139.78h-55.19v-134.14c0-18.26-4.43-32.69-13.29-43.3-8.86-10.61-22.16-15.91-39.88-15.91-15.58,0-28.67,5.51-39.28,16.52-10.61,11.01-15.91,26.86-15.91,47.53v129.31h-54.38V103.11Z"/>
      <path class="cls-1" d="M872.15,3.77h0c91.54,0,165.75,74.21,165.75,165.75v133.03s92.87,0,92.87,0v36.21h-258.62V3.77Z"/>
      <path class="cls-1" d="M1282.8,338.75c-14.42,0-28.62-2.79-42.62-8.36-14.01-5.57-26.58-13.66-37.73-24.27-11.15-10.6-20.13-23.59-26.92-38.95-6.8-15.36-10.2-32.84-10.2-52.41s3.33-37.46,9.99-52.82c6.66-15.36,15.5-28.35,26.51-38.95,11.01-10.6,23.59-18.69,37.73-24.27,14.14-5.57,28.82-8.36,44.05-8.36s30.32,3,43.65,8.97c13.32,5.98,24.33,14.14,33.04,24.47v-28.55h55.07v238.62h-55.07v-31c-8.71,11.15-19.85,19.92-33.45,26.31-13.6,6.39-28.28,9.59-44.05,9.59ZM1291.77,288.17c10.06,0,19.51-1.9,28.35-5.71,8.83-3.8,16.38-9.11,22.64-15.91,6.25-6.8,11.22-14.68,14.89-23.66,3.67-8.97,5.51-18.62,5.51-28.96s-1.84-19.58-5.51-28.55c-3.67-8.97-8.64-16.79-14.89-23.45-6.26-6.66-13.8-11.89-22.64-15.7-8.84-3.8-18.29-5.71-28.35-5.71s-19.85,1.91-28.55,5.71c-8.71,3.81-16.32,8.97-22.84,15.5-6.53,6.53-11.62,14.28-15.3,23.25-3.67,8.97-5.51,18.63-5.51,28.96s1.84,20.06,5.51,29.16c3.67,9.11,8.77,17,15.3,23.66,6.53,6.67,14.14,11.9,22.84,15.7,8.7,3.81,18.21,5.71,28.55,5.71Z"/>
      <path class="cls-1" d="M1598.04,338.76c-16.32-.03-31.27-3.19-44.85-9.47-13.59-6.28-24.72-15.14-33.39-26.58l-.06,31-54.66-.11.94-333.6,55.07.11-.52,125.17c8.45-10.59,19.41-19.06,32.89-25.43,13.47-6.36,28.23-9.53,44.28-9.5,14.95.03,29.5,2.85,43.63,8.45,14.12,5.6,26.62,13.72,37.48,24.34,10.85,10.63,19.59,23.63,26.23,39.01,6.63,15.38,9.93,33,9.89,52.84-.04,19.58-3.48,37.05-10.3,52.39-6.83,15.35-15.76,28.32-26.8,38.9-11.03,10.58-23.49,18.65-37.37,24.19-13.88,5.54-28.03,8.3-42.44,8.28ZM1588.76,288.16c10.06.02,19.44-1.86,28.15-5.65,8.71-3.79,16.33-9,22.87-15.66,6.54-6.65,11.66-14.52,15.34-23.63,3.69-9.1,5.55-18.82,5.57-29.15.02-10.33-1.8-19.99-5.45-28.97-3.65-8.98-8.74-16.74-15.25-23.28-6.51-6.54-14.12-11.72-22.81-15.55-8.7-3.82-18.07-5.75-28.13-5.77s-19.79,1.87-28.36,5.65c-8.57,3.79-16.07,9.01-22.47,15.66-6.41,6.65-11.39,14.46-14.94,23.42-3.55,8.97-5.34,18.48-5.36,28.54s1.73,19.99,5.24,28.97c3.51,8.98,8.46,16.88,14.84,23.69,6.37,6.81,13.84,12.13,22.4,15.95,8.56,3.83,18,5.75,28.34,5.77Z"/>
    </g>
  </g>
</svg>